<svg xmlns="http://www.w3.org/2000/svg" xmlns:xlink="http://www.w3.org/1999/xlink" width="1118" height="425" contentScriptType="application/ecmascript" contentStyleType="text/css" preserveAspectRatio="none" style="width:1118px;height:425px" version="1.1" viewBox="0 0 1118 425" zoomAndPan="magnify"><defs><filter id="f1tglg79w5riye" width="300%" height="300%" x="-1" y="-1"><feGaussianBlur result="blurOut" stdDeviation="2"/><feColorMatrix in="blurOut" result="blurOut2" type="matrix" values="0 0 0 0 0 0 0 0 0 0 0 0 0 0 0 0 0 0 .4 0"/><feOffset dx="4" dy="4" in="blurOut2" result="blurOut3"/><feBlend in="SourceGraphic" in2="blurOut3" mode="normal"/></filter></defs><g><text x="382.5" y="22.995" fill="#000" font-family="sans-serif" font-size="14" font-weight="bold" lengthAdjust="spacingAndGlyphs" textLength="344">DynamicPartitionObserver : Ignore Partition</text><rect width="10" height="192.328" x="322" y="159.594" fill="#FFF" filter="url(#f1tglg79w5riye)" style="stroke:#a80036;stroke-width:1"/><rect width="10" height="29.266" x="546.5" y="204.125" fill="#FFF" filter="url(#f1tglg79w5riye)" style="stroke:#a80036;stroke-width:1"/><rect width="10" height="29.133" x="546.5" y="286.656" fill="#FFF" filter="url(#f1tglg79w5riye)" style="stroke:#a80036;stroke-width:1"/><rect width="459" height="75.398" x="219" y="248.523" fill="#FFF" filter="url(#f1tglg79w5riye)" style="stroke:#000;stroke-width:2"/><line style="stroke:#a80036;stroke-width:1;stroke-dasharray:5,5" x1="113" x2="113" y1="81.594" y2="371.055"/><line style="stroke:#a80036;stroke-width:1;stroke-dasharray:5,5" x1="327" x2="327" y1="81.594" y2="371.055"/><line style="stroke:#a80036;stroke-width:1;stroke-dasharray:5,5" x1="551" x2="551" y1="81.594" y2="371.055"/><line style="stroke:#a80036;stroke-width:1;stroke-dasharray:5,5" x1="757" x2="757" y1="81.594" y2="371.055"/><line style="stroke:#a80036;stroke-width:1;stroke-dasharray:5,5" x1="973" x2="973" y1="81.594" y2="371.055"/><rect width="207" height="30.297" x="8" y="46.297" fill="#FEFECE" filter="url(#f1tglg79w5riye)" style="stroke:#a80036;stroke-width:1.5"/><text x="15" y="66.292" fill="#000" font-family="sans-serif" font-size="14" lengthAdjust="spacingAndGlyphs" textLength="193">PublicationObserverListener</text><rect width="207" height="30.297" x="8" y="370.055" fill="#FEFECE" filter="url(#f1tglg79w5riye)" style="stroke:#a80036;stroke-width:1.5"/><text x="15" y="390.05" fill="#000" font-family="sans-serif" font-size="14" lengthAdjust="spacingAndGlyphs" textLength="193">PublicationObserverListener</text><rect width="192" height="30.297" x="229" y="46.297" fill="#FEFECE" filter="url(#f1tglg79w5riye)" style="stroke:#a80036;stroke-width:1.5"/><text x="236" y="66.292" fill="#000" font-family="sans-serif" font-size="14" lengthAdjust="spacingAndGlyphs" textLength="178">DynamicPartitionObserver</text><rect width="192" height="30.297" x="229" y="370.055" fill="#FEFECE" filter="url(#f1tglg79w5riye)" style="stroke:#a80036;stroke-width:1.5"/><text x="236" y="390.05" fill="#000" font-family="sans-serif" font-size="14" lengthAdjust="spacingAndGlyphs" textLength="178">DynamicPartitionObserver</text><rect width="225" height="30.297" x="439" y="42.297" fill="#FEFECE" filter="url(#f1tglg79w5riye)" style="stroke:#a80036;stroke-width:1.5"/><rect width="225" height="30.297" x="435" y="46.297" fill="#FEFECE" filter="url(#f1tglg79w5riye)" style="stroke:#a80036;stroke-width:1.5"/><text x="442" y="66.292" fill="#000" font-family="sans-serif" font-size="14" lengthAdjust="spacingAndGlyphs" textLength="211">DynamicPartitionObserverFilter</text><rect width="225" height="30.297" x="439" y="370.055" fill="#FEFECE" filter="url(#f1tglg79w5riye)" style="stroke:#a80036;stroke-width:1.5"/><rect width="225" height="30.297" x="435" y="374.055" fill="#FEFECE" filter="url(#f1tglg79w5riye)" style="stroke:#a80036;stroke-width:1.5"/><text x="442" y="394.05" fill="#000" font-family="sans-serif" font-size="14" lengthAdjust="spacingAndGlyphs" textLength="211">DynamicPartitionObserverFilter</text><text x="678" y="78.292" fill="#000" font-family="sans-serif" font-size="14" lengthAdjust="spacingAndGlyphs" textLength="152">SingleThreadExecutor</text><ellipse cx="757" cy="49.297" fill="#FEFECE" filter="url(#f1tglg79w5riye)" rx="12" ry="12" style="stroke:#a80036;stroke-width:2"/><polygon fill="#A80036" points="753 37.297 759 32.297 757 37.297 759 42.297 753 37.297" style="stroke:#a80036;stroke-width:1"/><text x="678" y="383.05" fill="#000" font-family="sans-serif" font-size="14" lengthAdjust="spacingAndGlyphs" textLength="152">SingleThreadExecutor</text><ellipse cx="757" cy="402.352" fill="#FEFECE" filter="url(#f1tglg79w5riye)" rx="12" ry="12" style="stroke:#a80036;stroke-width:2"/><polygon fill="#A80036" points="753 390.352 759 385.352 757 390.352 759 395.352 753 390.352" style="stroke:#a80036;stroke-width:1"/><rect width="247" height="30.297" x="850" y="42.297" fill="#FEFECE" filter="url(#f1tglg79w5riye)" style="stroke:#a80036;stroke-width:1.5"/><rect width="247" height="30.297" x="846" y="46.297" fill="#FEFECE" filter="url(#f1tglg79w5riye)" style="stroke:#a80036;stroke-width:1.5"/><text x="853" y="66.292" fill="#000" font-family="sans-serif" font-size="14" lengthAdjust="spacingAndGlyphs" textLength="233">DynamicPartitionObserverListener</text><rect width="247" height="30.297" x="850" y="370.055" fill="#FEFECE" filter="url(#f1tglg79w5riye)" style="stroke:#a80036;stroke-width:1.5"/><rect width="247" height="30.297" x="846" y="374.055" fill="#FEFECE" filter="url(#f1tglg79w5riye)" style="stroke:#a80036;stroke-width:1.5"/><text x="853" y="394.05" fill="#000" font-family="sans-serif" font-size="14" lengthAdjust="spacingAndGlyphs" textLength="233">DynamicPartitionObserverListener</text><rect width="10" height="192.328" x="322" y="159.594" fill="#FFF" filter="url(#f1tglg79w5riye)" style="stroke:#a80036;stroke-width:1"/><rect width="10" height="29.266" x="546.5" y="204.125" fill="#FFF" filter="url(#f1tglg79w5riye)" style="stroke:#a80036;stroke-width:1"/><rect width="10" height="29.133" x="546.5" y="286.656" fill="#FFF" filter="url(#f1tglg79w5riye)" style="stroke:#a80036;stroke-width:1"/><line style="stroke:#000;stroke-width:1;stroke-dasharray:2,2" x1="3" x2="1106" y1="92.594" y2="92.594"/><polygon fill="#A80036" points="310 155.594 320 159.594 310 163.594 314 159.594" style="stroke:#a80036;stroke-width:1"/><line style="stroke:#a80036;stroke-width:1" x1="113.5" x2="316" y1="159.594" y2="159.594"/><text x="120.5" y="109.661" fill="#000" font-family="sans-serif" font-size="13" lengthAdjust="spacingAndGlyphs" textLength="106">publicationLost()</text><text x="120.5" y="124.793" fill="#000" font-family="sans-serif" font-size="13" lengthAdjust="spacingAndGlyphs" textLength="114">subscriptionLost()</text><text x="120.5" y="139.926" fill="#000" font-family="sans-serif" font-size="13" lengthAdjust="spacingAndGlyphs" textLength="150">publicationDiscovered()</text><text x="120.5" y="155.059" fill="#000" font-family="sans-serif" font-size="13" lengthAdjust="spacingAndGlyphs" textLength="158">subscriptionDiscovered()</text><polygon fill="#A80036" points="534.5 200.125 544.5 204.125 534.5 208.125 538.5 204.125" style="stroke:#a80036;stroke-width:1"/><line style="stroke:#a80036;stroke-width:1" x1="332" x2="540.5" y1="204.125" y2="204.125"/><text x="339" y="184.192" fill="#000" font-family="sans-serif" font-size="13" lengthAdjust="spacingAndGlyphs" textLength="119">ignorePublication()</text><text x="339" y="199.325" fill="#000" font-family="sans-serif" font-size="13" lengthAdjust="spacingAndGlyphs" textLength="129">ignoreSubscription()</text><polygon fill="#A80036" points="343 229.391 333 233.391 343 237.391 339 233.391" style="stroke:#a80036;stroke-width:1"/><line style="stroke:#a80036;stroke-width:1;stroke-dasharray:2,2" x1="337" x2="550.5" y1="233.391" y2="233.391"/><text x="349" y="228.458" fill="#000" font-family="sans-serif" font-size="13" lengthAdjust="spacingAndGlyphs" textLength="30">false</text><rect width="459" height="75.398" x="219" fill="none" style="stroke:#000;stroke-width:2" y="248.523"/><polygon fill="#EEE" points="219 248.523 296 248.523 296 255.523 286 265.523 219 265.523 219 248.523" style="stroke:#000;stroke-width:2"/><text x="234" y="261.59" fill="#000" font-family="sans-serif" font-size="13" font-weight="bold" lengthAdjust="spacingAndGlyphs" textLength="32">loop</text><text x="311" y="260.734" fill="#000" font-family="sans-serif" font-size="11" font-weight="bold" lengthAdjust="spacingAndGlyphs" textLength="72">[partitions]</text><polygon fill="#A80036" points="534.5 282.656 544.5 286.656 534.5 290.656 538.5 286.656" style="stroke:#a80036;stroke-width:1"/><line style="stroke:#a80036;stroke-width:1" x1="332" x2="540.5" y1="286.656" y2="286.656"/><text x="339" y="281.723" fill="#000" font-family="sans-serif" font-size="13" lengthAdjust="spacingAndGlyphs" textLength="103">ignorePartition()</text><polygon fill="#A80036" points="343 311.789 333 315.789 343 319.789 339 315.789" style="stroke:#a80036;stroke-width:1"/><line style="stroke:#a80036;stroke-width:1;stroke-dasharray:2,2" x1="337" x2="550.5" y1="315.789" y2="315.789"/><text x="349" y="310.856" fill="#000" font-family="sans-serif" font-size="13" lengthAdjust="spacingAndGlyphs" textLength="26">true</text><polygon fill="#A80036" points="124.5 347.922 114.5 351.922 124.5 355.922 120.5 351.922" style="stroke:#a80036;stroke-width:1"/><line style="stroke:#a80036;stroke-width:1;stroke-dasharray:2,2" x1="118.5" x2="326" y1="351.922" y2="351.922"/><text x="130.5" y="346.989" fill="#000" font-family="sans-serif" font-size="13" lengthAdjust="spacingAndGlyphs" textLength="32">done</text><line style="stroke:#000;stroke-width:1;stroke-dasharray:2,2" x1="3" x2="1106" y1="360.055" y2="360.055"/></g></svg>