<svg xmlns="http://www.w3.org/2000/svg" xmlns:xlink="http://www.w3.org/1999/xlink" width="1118" height="333" contentScriptType="application/ecmascript" contentStyleType="text/css" preserveAspectRatio="none" style="width:1118px;height:333px" version="1.1" viewBox="0 0 1118 333" zoomAndPan="magnify"><defs><filter id="f1tglg79w5riye" width="300%" height="300%" x="-1" y="-1"><feGaussianBlur result="blurOut" stdDeviation="2"/><feColorMatrix in="blurOut" result="blurOut2" type="matrix" values="0 0 0 0 0 0 0 0 0 0 0 0 0 0 0 0 0 0 .4 0"/><feOffset dx="4" dy="4" in="blurOut2" result="blurOut3"/><feBlend in="SourceGraphic" in2="blurOut3" mode="normal"/></filter></defs><g><text x="320.5" y="22.995" fill="#000" font-family="sans-serif" font-size="14" font-weight="bold" lengthAdjust="spacingAndGlyphs" textLength="468">DynamicPartitionObserver : Ignore Publication/Subscription</text><rect width="10" height="102.93" x="322" y="157.594" fill="#FFF" filter="url(#f1tglg79w5riye)" style="stroke:#a80036;stroke-width:1"/><rect width="10" height="29.266" x="546.5" y="202.125" fill="#FFF" filter="url(#f1tglg79w5riye)" style="stroke:#a80036;stroke-width:1"/><line style="stroke:#a80036;stroke-width:1;stroke-dasharray:5,5" x1="113" x2="113" y1="81.594" y2="279.656"/><line style="stroke:#a80036;stroke-width:1;stroke-dasharray:5,5" x1="327" x2="327" y1="81.594" y2="279.656"/><line style="stroke:#a80036;stroke-width:1;stroke-dasharray:5,5" x1="551" x2="551" y1="81.594" y2="279.656"/><line style="stroke:#a80036;stroke-width:1;stroke-dasharray:5,5" x1="757" x2="757" y1="81.594" y2="279.656"/><line style="stroke:#a80036;stroke-width:1;stroke-dasharray:5,5" x1="973" x2="973" y1="81.594" y2="279.656"/><rect width="207" height="30.297" x="8" y="46.297" fill="#FEFECE" filter="url(#f1tglg79w5riye)" style="stroke:#a80036;stroke-width:1.5"/><text x="15" y="66.292" fill="#000" font-family="sans-serif" font-size="14" lengthAdjust="spacingAndGlyphs" textLength="193">PublicationObserverListener</text><rect width="207" height="30.297" x="8" y="278.656" fill="#FEFECE" filter="url(#f1tglg79w5riye)" style="stroke:#a80036;stroke-width:1.5"/><text x="15" y="298.651" fill="#000" font-family="sans-serif" font-size="14" lengthAdjust="spacingAndGlyphs" textLength="193">PublicationObserverListener</text><rect width="192" height="30.297" x="229" y="46.297" fill="#FEFECE" filter="url(#f1tglg79w5riye)" style="stroke:#a80036;stroke-width:1.5"/><text x="236" y="66.292" fill="#000" font-family="sans-serif" font-size="14" lengthAdjust="spacingAndGlyphs" textLength="178">DynamicPartitionObserver</text><rect width="192" height="30.297" x="229" y="278.656" fill="#FEFECE" filter="url(#f1tglg79w5riye)" style="stroke:#a80036;stroke-width:1.5"/><text x="236" y="298.651" fill="#000" font-family="sans-serif" font-size="14" lengthAdjust="spacingAndGlyphs" textLength="178">DynamicPartitionObserver</text><rect width="225" height="30.297" x="439" y="42.297" fill="#FEFECE" filter="url(#f1tglg79w5riye)" style="stroke:#a80036;stroke-width:1.5"/><rect width="225" height="30.297" x="435" y="46.297" fill="#FEFECE" filter="url(#f1tglg79w5riye)" style="stroke:#a80036;stroke-width:1.5"/><text x="442" y="66.292" fill="#000" font-family="sans-serif" font-size="14" lengthAdjust="spacingAndGlyphs" textLength="211">DynamicPartitionObserverFilter</text><rect width="225" height="30.297" x="439" y="278.656" fill="#FEFECE" filter="url(#f1tglg79w5riye)" style="stroke:#a80036;stroke-width:1.5"/><rect width="225" height="30.297" x="435" y="282.656" fill="#FEFECE" filter="url(#f1tglg79w5riye)" style="stroke:#a80036;stroke-width:1.5"/><text x="442" y="302.651" fill="#000" font-family="sans-serif" font-size="14" lengthAdjust="spacingAndGlyphs" textLength="211">DynamicPartitionObserverFilter</text><text x="678" y="78.292" fill="#000" font-family="sans-serif" font-size="14" lengthAdjust="spacingAndGlyphs" textLength="152">SingleThreadExecutor</text><ellipse cx="757" cy="49.297" fill="#FEFECE" filter="url(#f1tglg79w5riye)" rx="12" ry="12" style="stroke:#a80036;stroke-width:2"/><polygon fill="#A80036" points="753 37.297 759 32.297 757 37.297 759 42.297 753 37.297" style="stroke:#a80036;stroke-width:1"/><text x="678" y="291.651" fill="#000" font-family="sans-serif" font-size="14" lengthAdjust="spacingAndGlyphs" textLength="152">SingleThreadExecutor</text><ellipse cx="757" cy="310.953" fill="#FEFECE" filter="url(#f1tglg79w5riye)" rx="12" ry="12" style="stroke:#a80036;stroke-width:2"/><polygon fill="#A80036" points="753 298.953 759 293.953 757 298.953 759 303.953 753 298.953" style="stroke:#a80036;stroke-width:1"/><rect width="247" height="30.297" x="850" y="42.297" fill="#FEFECE" filter="url(#f1tglg79w5riye)" style="stroke:#a80036;stroke-width:1.5"/><rect width="247" height="30.297" x="846" y="46.297" fill="#FEFECE" filter="url(#f1tglg79w5riye)" style="stroke:#a80036;stroke-width:1.5"/><text x="853" y="66.292" fill="#000" font-family="sans-serif" font-size="14" lengthAdjust="spacingAndGlyphs" textLength="233">DynamicPartitionObserverListener</text><rect width="247" height="30.297" x="850" y="278.656" fill="#FEFECE" filter="url(#f1tglg79w5riye)" style="stroke:#a80036;stroke-width:1.5"/><rect width="247" height="30.297" x="846" y="282.656" fill="#FEFECE" filter="url(#f1tglg79w5riye)" style="stroke:#a80036;stroke-width:1.5"/><text x="853" y="302.651" fill="#000" font-family="sans-serif" font-size="14" lengthAdjust="spacingAndGlyphs" textLength="233">DynamicPartitionObserverListener</text><rect width="10" height="102.93" x="322" y="157.594" fill="#FFF" filter="url(#f1tglg79w5riye)" style="stroke:#a80036;stroke-width:1"/><rect width="10" height="29.266" x="546.5" y="202.125" fill="#FFF" filter="url(#f1tglg79w5riye)" style="stroke:#a80036;stroke-width:1"/><polygon fill="#A80036" points="310 153.594 320 157.594 310 161.594 314 157.594" style="stroke:#a80036;stroke-width:1"/><line style="stroke:#a80036;stroke-width:1" x1="113.5" x2="316" y1="157.594" y2="157.594"/><text x="120.5" y="107.661" fill="#000" font-family="sans-serif" font-size="13" lengthAdjust="spacingAndGlyphs" textLength="106">publicationLost()</text><text x="120.5" y="122.793" fill="#000" font-family="sans-serif" font-size="13" lengthAdjust="spacingAndGlyphs" textLength="114">subscriptionLost()</text><text x="120.5" y="137.926" fill="#000" font-family="sans-serif" font-size="13" lengthAdjust="spacingAndGlyphs" textLength="150">publicationDiscovered()</text><text x="120.5" y="153.059" fill="#000" font-family="sans-serif" font-size="13" lengthAdjust="spacingAndGlyphs" textLength="158">subscriptionDiscovered()</text><polygon fill="#A80036" points="534.5 198.125 544.5 202.125 534.5 206.125 538.5 202.125" style="stroke:#a80036;stroke-width:1"/><line style="stroke:#a80036;stroke-width:1" x1="332" x2="540.5" y1="202.125" y2="202.125"/><text x="339" y="182.192" fill="#000" font-family="sans-serif" font-size="13" lengthAdjust="spacingAndGlyphs" textLength="119">ignorePublication()</text><text x="339" y="197.325" fill="#000" font-family="sans-serif" font-size="13" lengthAdjust="spacingAndGlyphs" textLength="129">ignoreSubscription()</text><polygon fill="#A80036" points="343 227.391 333 231.391 343 235.391 339 231.391" style="stroke:#a80036;stroke-width:1"/><line style="stroke:#a80036;stroke-width:1;stroke-dasharray:2,2" x1="337" x2="550.5" y1="231.391" y2="231.391"/><text x="349" y="226.458" fill="#000" font-family="sans-serif" font-size="13" lengthAdjust="spacingAndGlyphs" textLength="26">true</text><polygon fill="#A80036" points="124.5 256.523 114.5 260.523 124.5 264.523 120.5 260.523" style="stroke:#a80036;stroke-width:1"/><line style="stroke:#a80036;stroke-width:1;stroke-dasharray:2,2" x1="118.5" x2="326" y1="260.523" y2="260.523"/><text x="130.5" y="255.59" fill="#000" font-family="sans-serif" font-size="13" lengthAdjust="spacingAndGlyphs" textLength="32">done</text><line style="stroke:#000;stroke-width:1;stroke-dasharray:2,2" x1="3" x2="1106" y1="268.656" y2="268.656"/></g></svg>