<svg xmlns="http://www.w3.org/2000/svg" xmlns:xlink="http://www.w3.org/1999/xlink" width="724" height="523" contentScriptType="application/ecmascript" contentStyleType="text/css" preserveAspectRatio="none" style="width:724px;height:523px" version="1.1" viewBox="0 0 724 523" zoomAndPan="magnify"><defs><filter id="f1xahrpw3ehyus" width="300%" height="300%" x="-1" y="-1"><feGaussianBlur result="blurOut" stdDeviation="2"/><feColorMatrix in="blurOut" result="blurOut2" type="matrix" values="0 0 0 0 0 0 0 0 0 0 0 0 0 0 0 0 0 0 .4 0"/><feOffset dx="4" dy="4" in="blurOut2" result="blurOut3"/><feBlend in="SourceGraphic" in2="blurOut3" mode="normal"/></filter></defs><g><text x="280.5" y="22.995" fill="#000" font-family="sans-serif" font-size="14" font-weight="bold" lengthAdjust="spacingAndGlyphs" textLength="165">Publication Observer</text><rect width="10" height="29.133" x="68" y="281.258" fill="#FFF" filter="url(#f1xahrpw3ehyus)" style="stroke:#a80036;stroke-width:1"/><rect width="10" height="58.266" x="217" y="112.594" fill="#FFF" filter="url(#f1xahrpw3ehyus)" style="stroke:#a80036;stroke-width:1"/><rect width="10" height="222.734" x="384" y="227.992" fill="#FFF" filter="url(#f1xahrpw3ehyus)" style="stroke:#a80036;stroke-width:1"/><rect width="700" height="179.602" x="13" y="243.125" fill="#FFF" filter="url(#f1xahrpw3ehyus)" style="stroke:#000;stroke-width:2"/><rect width="403" height="90.203" x="300" y="325.523" fill="#FFF" filter="url(#f1xahrpw3ehyus)" style="stroke:#000;stroke-width:2"/><rect width="403" height="43.938" x="300" fill="#FFF" style="stroke:none;stroke-width:1" y="371.789"/><line style="stroke:#a80036;stroke-width:1" x1="73" x2="73" y1="81.594" y2="178.992"/><line style="stroke:#a80036;stroke-width:1;stroke-dasharray:1,4" x1="73" x2="73" y1="178.992" y2="206.992"/><line style="stroke:#a80036;stroke-width:1" x1="73" x2="73" y1="206.992" y2="468.859"/><line style="stroke:#a80036;stroke-width:1" x1="222" x2="222" y1="81.594" y2="178.992"/><line style="stroke:#a80036;stroke-width:1;stroke-dasharray:1,4" x1="222" x2="222" y1="178.992" y2="206.992"/><line style="stroke:#a80036;stroke-width:1" x1="222" x2="222" y1="206.992" y2="468.859"/><line style="stroke:#a80036;stroke-width:1" x1="389" x2="389" y1="81.594" y2="178.992"/><line style="stroke:#a80036;stroke-width:1;stroke-dasharray:1,4" x1="389" x2="389" y1="178.992" y2="206.992"/><line style="stroke:#a80036;stroke-width:1" x1="389" x2="389" y1="206.992" y2="468.859"/><line style="stroke:#a80036;stroke-width:1" x1="585" x2="585" y1="81.594" y2="178.992"/><line style="stroke:#a80036;stroke-width:1;stroke-dasharray:1,4" x1="585" x2="585" y1="178.992" y2="206.992"/><line style="stroke:#a80036;stroke-width:1" x1="585" x2="585" y1="206.992" y2="468.859"/><rect width="96" height="30.297" x="23" y="46.297" fill="#FEFECE" filter="url(#f1xahrpw3ehyus)" style="stroke:#a80036;stroke-width:1.5"/><text x="30" y="66.292" fill="#000" font-family="sans-serif" font-size="14" lengthAdjust="spacingAndGlyphs" textLength="82">DataReader</text><rect width="96" height="30.297" x="23" y="467.859" fill="#FEFECE" filter="url(#f1xahrpw3ehyus)" style="stroke:#a80036;stroke-width:1.5"/><text x="30" y="487.854" fill="#000" font-family="sans-serif" font-size="14" lengthAdjust="spacingAndGlyphs" textLength="82">DataReader</text><rect width="152" height="30.297" x="144" y="46.297" fill="#FEFECE" filter="url(#f1xahrpw3ehyus)" style="stroke:#a80036;stroke-width:1.5"/><text x="151" y="66.292" fill="#000" font-family="sans-serif" font-size="14" lengthAdjust="spacingAndGlyphs" textLength="138">PublicationObserver</text><rect width="152" height="30.297" x="144" y="467.859" fill="#FEFECE" filter="url(#f1xahrpw3ehyus)" style="stroke:#a80036;stroke-width:1.5"/><text x="151" y="487.854" fill="#000" font-family="sans-serif" font-size="14" lengthAdjust="spacingAndGlyphs" textLength="138">PublicationObserver</text><text x="310" y="78.292" fill="#000" font-family="sans-serif" font-size="14" lengthAdjust="spacingAndGlyphs" textLength="152">SingleThreadExecutor</text><ellipse cx="389" cy="49.297" fill="#FEFECE" filter="url(#f1xahrpw3ehyus)" rx="12" ry="12" style="stroke:#a80036;stroke-width:2"/><polygon fill="#A80036" points="385 37.297 391 32.297 389 37.297 391 42.297 385 37.297" style="stroke:#a80036;stroke-width:1"/><text x="310" y="480.854" fill="#000" font-family="sans-serif" font-size="14" lengthAdjust="spacingAndGlyphs" textLength="152">SingleThreadExecutor</text><ellipse cx="389" cy="500.156" fill="#FEFECE" filter="url(#f1xahrpw3ehyus)" rx="12" ry="12" style="stroke:#a80036;stroke-width:2"/><polygon fill="#A80036" points="385 488.156 391 483.156 389 488.156 391 493.156 385 488.156" style="stroke:#a80036;stroke-width:1"/><rect width="207" height="30.297" x="482" y="42.297" fill="#FEFECE" filter="url(#f1xahrpw3ehyus)" style="stroke:#a80036;stroke-width:1.5"/><rect width="207" height="30.297" x="478" y="46.297" fill="#FEFECE" filter="url(#f1xahrpw3ehyus)" style="stroke:#a80036;stroke-width:1.5"/><text x="485" y="66.292" fill="#000" font-family="sans-serif" font-size="14" lengthAdjust="spacingAndGlyphs" textLength="193">PublicationObserverListener</text><rect width="207" height="30.297" x="482" y="467.859" fill="#FEFECE" filter="url(#f1xahrpw3ehyus)" style="stroke:#a80036;stroke-width:1.5"/><rect width="207" height="30.297" x="478" y="471.859" fill="#FEFECE" filter="url(#f1xahrpw3ehyus)" style="stroke:#a80036;stroke-width:1.5"/><text x="485" y="491.854" fill="#000" font-family="sans-serif" font-size="14" lengthAdjust="spacingAndGlyphs" textLength="193">PublicationObserverListener</text><rect width="10" height="29.133" x="68" y="281.258" fill="#FFF" filter="url(#f1xahrpw3ehyus)" style="stroke:#a80036;stroke-width:1"/><rect width="10" height="58.266" x="217" y="112.594" fill="#FFF" filter="url(#f1xahrpw3ehyus)" style="stroke:#a80036;stroke-width:1"/><rect width="10" height="222.734" x="384" y="227.992" fill="#FFF" filter="url(#f1xahrpw3ehyus)" style="stroke:#a80036;stroke-width:1"/><polygon fill="#A80036" points="205 108.594 215 112.594 205 116.594 209 112.594" style="stroke:#a80036;stroke-width:1"/><line style="stroke:#a80036;stroke-width:1" x1="73" x2="211" y1="112.594" y2="112.594"/><text x="80" y="107.661" fill="#000" font-family="sans-serif" font-size="13" lengthAdjust="spacingAndGlyphs" textLength="125">on_data_available()</text><polygon fill="#A80036" points="377 137.727 387 141.727 377 145.727 381 141.727" style="stroke:#a80036;stroke-width:1"/><line style="stroke:#a80036;stroke-width:1" x1="227" x2="383" y1="141.727" y2="141.727"/><text x="234" y="136.793" fill="#000" font-family="sans-serif" font-size="13" lengthAdjust="spacingAndGlyphs" textLength="54">submit()</text><polygon fill="#A80036" points="84 166.859 74 170.859 84 174.859 80 170.859" style="stroke:#a80036;stroke-width:1"/><line style="stroke:#a80036;stroke-width:1;stroke-dasharray:2,2" x1="78" x2="221" y1="170.859" y2="170.859"/><text x="90" y="165.926" fill="#000" font-family="sans-serif" font-size="13" lengthAdjust="spacingAndGlyphs" textLength="32">done</text><polygon fill="#A80036" points="372 223.992 382 227.992 372 231.992 376 227.992" style="stroke:#a80036;stroke-width:1"/><line style="stroke:#a80036;stroke-width:1" x1="3" x2="378" y1="227.992" y2="227.992"/><text x="10" y="223.059" fill="#000" font-family="sans-serif" font-size="13" lengthAdjust="spacingAndGlyphs" textLength="31">run()</text><rect width="700" height="179.602" x="13" fill="none" style="stroke:#000;stroke-width:2" y="243.125"/><polygon fill="#EEE" points="13 243.125 90 243.125 90 250.125 80 260.125 13 260.125 13 243.125" style="stroke:#000;stroke-width:2"/><text x="28" y="256.192" fill="#000" font-family="sans-serif" font-size="13" font-weight="bold" lengthAdjust="spacingAndGlyphs" textLength="32">loop</text><text x="105" y="255.335" fill="#000" font-family="sans-serif" font-size="11" font-weight="bold" lengthAdjust="spacingAndGlyphs" textLength="246">[RETCODE_NO_DATA|RETCODE_ERROR]</text><polygon fill="#A80036" points="89 277.258 79 281.258 89 285.258 85 281.258" style="stroke:#a80036;stroke-width:1"/><line style="stroke:#a80036;stroke-width:1" x1="83" x2="383" y1="281.258" y2="281.258"/><text x="95" y="276.325" fill="#000" font-family="sans-serif" font-size="13" lengthAdjust="spacingAndGlyphs" textLength="187">read_next_sample_untyped()</text><polygon fill="#A80036" points="372 306.391 382 310.391 372 314.391 376 310.391" style="stroke:#a80036;stroke-width:1"/><line style="stroke:#a80036;stroke-width:1;stroke-dasharray:2,2" x1="73" x2="378" y1="310.391" y2="310.391"/><text x="80" y="305.457" fill="#000" font-family="sans-serif" font-size="13" lengthAdjust="spacingAndGlyphs" textLength="125">sample, sampleInfo</text><rect width="403" height="90.203" x="300" fill="none" style="stroke:#000;stroke-width:2" y="325.523"/><polygon fill="#EEE" points="300 325.523 364 325.523 364 332.523 354 342.523 300 342.523 300 325.523" style="stroke:#000;stroke-width:2"/><text x="315" y="338.59" fill="#000" font-family="sans-serif" font-size="13" font-weight="bold" lengthAdjust="spacingAndGlyphs" textLength="19">alt</text><text x="379" y="337.734" fill="#000" font-family="sans-serif" font-size="11" font-weight="bold" lengthAdjust="spacingAndGlyphs" textLength="194">[sampleInfo.valid_data = true]</text><polygon fill="#A80036" points="573.5 359.656 583.5 363.656 573.5 367.656 577.5 363.656" style="stroke:#a80036;stroke-width:1"/><line style="stroke:#a80036;stroke-width:1" x1="394" x2="579.5" y1="363.656" y2="363.656"/><text x="401" y="358.723" fill="#000" font-family="sans-serif" font-size="13" lengthAdjust="spacingAndGlyphs" textLength="150">publicationDiscovered()</text><line style="stroke:#000;stroke-width:1;stroke-dasharray:2,2" x1="300" x2="703" y1="372.789" y2="372.789"/><text x="305" y="383" fill="#000" font-family="sans-serif" font-size="11" font-weight="bold" lengthAdjust="spacingAndGlyphs" textLength="200">[sampleInfo.valid_data = false]</text><polygon fill="#A80036" points="573.5 403.594 583.5 407.594 573.5 411.594 577.5 407.594" style="stroke:#a80036;stroke-width:1"/><line style="stroke:#a80036;stroke-width:1" x1="394" x2="579.5" y1="407.594" y2="407.594"/><text x="401" y="402.661" fill="#000" font-family="sans-serif" font-size="13" lengthAdjust="spacingAndGlyphs" textLength="106">publicationLost()</text><polygon fill="#A80036" points="14 446.727 4 450.727 14 454.727 10 450.727" style="stroke:#a80036;stroke-width:1"/><line style="stroke:#a80036;stroke-width:1;stroke-dasharray:2,2" x1="8" x2="388" y1="450.727" y2="450.727"/><text x="20" y="445.793" fill="#000" font-family="sans-serif" font-size="13" lengthAdjust="spacingAndGlyphs" textLength="32">done</text></g></svg>